<svg id="ad2f3e8c-4e2f-44ed-8b5d-2fd5969a27ad" data-name="Layer 1" xmlns="http://www.w3.org/2000/svg" viewBox="0 0 500 500"><path d="M250,491A241,241,0,0,1,79.5874,79.5874,241,241,0,0,1,420.4131,420.4131,239.4263,239.4263,0,0,1,250,491Z" fill="#fff"/><path d="M250,18a232.0659,232.0659,0,0,1,90.2993,445.7757A232.0647,232.0647,0,0,1,159.7007,36.2243,230.531,230.531,0,0,1,250,18m0-18C111.9288,0,0,111.9288,0,250S111.9288,500,250,500,500,388.0712,500,250,388.0712,0,250,0Z"/><path d="M101.2246,212.3721c0-19.5415-.3472-28.73-1.04-42.9419l-24.43-3.1978V153.0142l57.72-22.4917,5.4556,3.4228,2.5195,28.896,1.5142,3.0581V277.1445l-1.04,3.3057v30.4443c0,23.6973.3467,49.4092,1.04,77.6709H100.1841c.6933-28.2617,1.04-53.5244,1.04-77.2216Zm68.5483,161.541v14.6523H76.8071V373.9131l36.1275-7.1065h20.5527ZM176.16,155.8022c-15.6294,0-32.0757,13.1768-50.2608,31.6216l-3.1206-6.1342c19.9839-34.7876,42.7764-50.7671,69.9185-50.7671,37.2636,0,66.8989,32.3549,66.8989,89.2885,0,56.02-32.8042,90.8394-72.6094,90.8394-26.2417,0-46.0854-14.1211-62.935-50.9424l3.1206-6.0762c16.1211,21.4942,29.456,32.1309,46.5732,32.1309,23.4253,0,41.4868-20.05,41.4868-63.9277S199.1455,155.8022,176.16,155.8022Z"/><path d="M329.6387,216.1143c0,42.8115,21.1953,66.2841,52.0068,66.2841,18.3291,0,33.3408-8.9052,43.708-23.6709l10.2305,7.6543c-11.3985,29.23-34.9893,44.2686-67.71,44.2686-47.3769,0-81.9052-32.544-81.9052-89.6431,0-56.956,40.0507-90.4848,86.6582-90.4848,33.7871,0,59.4453,21.4975,62.9355,48.8335-2.752,10.8383-8.9717,15.8847-19.5488,15.8847-12.5879,0-20.5323-7.8886-22.5772-24.9873l-5.8691-28.2671,20.6592,13.9287c-11.28-5.7431-21.669-8.23-32.0147-8.23C351.2637,147.6846,329.6387,169.3315,329.6387,216.1143Z"/></svg>