<svg xmlns="http://www.w3.org/2000/svg" viewBox="0 0 366 366" alt="Paul's logo, with P and C in a circle"><g id="a0692529-9abe-4f58-9478-9aa973614c1e" data-name="Layer 2"><g id="af40f276-5138-4ede-99c3-c872764a10a8" data-name="Layer 1"><path d="M183,18A165,165,0,0,1,299.6726,299.6726,165,165,0,1,1,66.3274,66.3274,163.92,163.92,0,0,1,183,18m0-18A183,183,0,1,0,366,183,183,183,0,0,0,183,0Z"/><path d="M74.0957,155.4546c0-14.3047-.2539-21.0313-.7617-31.4346l-17.8828-2.3408v-9.6758L97.7026,95.5391l3.9937,2.5053,1.8437,21.1529,1.1084,2.2382v81.4336l-.7612,2.42v22.2851c0,17.3467.2539,36.169.7612,56.8565H73.334c.5078-20.6875.7617-39.1807.7617-56.5274Zm50.1772,118.2505v10.7256H56.2222V273.7051l26.4453-5.2022H97.7119Zm4.6753-159.6607c-11.4409,0-23.4794,9.6455-36.7905,23.1475l-2.2847-4.4907c14.6285-25.4649,31.3125-37.1621,51.1807-37.1621,27.2769,0,48.97,23.6845,48.97,65.3608,0,41.0073-24.0127,66.4966-53.15,66.4966-19.2089,0-33.7343-10.3379-46.0688-37.291l2.2847-4.4483c11.8007,15.7344,21.5615,23.5205,34.0918,23.5205,17.1469,0,30.3681-14.6777,30.3681-46.7964S145.7739,114.0444,128.9482,114.0444Z"/><path d="M241.2949,158.1934c0,31.3388,15.5156,48.5214,38.0694,48.5214,13.4169,0,24.4052-6.5185,31.9941-17.3271l7.4893,5.6025c-8.3438,21.3965-25.6123,32.4063-49.5645,32.4063-34.68,0-59.9541-23.8233-59.9541-65.6211,0-41.6929,29.3164-66.2363,63.4336-66.2363,24.7324,0,43.5146,15.7368,46.0684,35.747-2.0137,7.9341-6.5665,11.628-14.31,11.628-9.2139,0-15.0293-5.7749-16.5264-18.2911l-4.2959-20.6918,15.1231,10.1958c-8.2578-4.2041-15.8623-6.0249-23.4346-6.0249C257.125,108.1021,241.2949,123.9478,241.2949,158.1934Z"/></g></g></svg>
